#!OML:ASF I:\salsa\salsa 7_09\Patient 1\Session 1\dancerfemale.ASF
:FULLY-SPECIFIED
:DEGREES
1775
root 5.48743 15.8004 -3.75231 -716.62 342.896 5.38586
lowerback 1.53587 3.35883 -2.27713
upperback -7.09131 4.32864 -0.49553
thorax -8.43409 2.25427 0.361853
lowerneck 13.9093 -18.6634 -13.1957
upperneck -6.00961 -26.3811 11.2241
head -0.759621 -13.46 5.73252
rclavicle -6.49032e-014 -3.18055e-015
rhumerus -4.88322 29.5822 -109.244
rradius 108.64
rwrist -35.5027
rhand -15.4485 57.0611
rfingers 7.12502
rthumb 10.7322 27.3552
lclavicle -6.49032e-014 -3.18055e-015
lhumerus -6.2883 2.66398 75.6896
lradius 132.673
lwrist -7.20998
lhand -46.7947 32.8485
lfingers 7.12502
lthumb -19.5099 61.8896
rfemur -23.3905 -13.6699 12.1938
rtibia 72.444
rfoot 12.8649 7.11442
rtoes -31.4242
lfemur -22.8187 1.01475 -36.1919
ltibia 32.9564
lfoot -26.6335 13.9584
ltoes 31.2425
1776
root 5.42886 15.7689 -3.54005 -716.412 347.35 5.57985
lowerback 1.40816 3.35955 -2.38529
upperback -6.94165 4.32208 -0.695373
thorax -8.18791 2.25256 0.227741
lowerneck 13.9754 -19.6171 -13.1265
upperneck -6.32238 -27.5856 12.4848
head -0.544694 -14.1268 5.98613
rclavicle 4.84041e-014 1.35174e-014
rhumerus -1.10125 28.7598 -107.116
rradius 109.378
rwrist -34.3281
rhand -15.344 58.4677
rfingers 7.12502
rthumb 10.8329 28.7671
lclavicle 4.84041e-014 1.35174e-014
lhumerus -11.9147 2.62999 77.8901
lradius 131.894
lwrist -6.30449
lhand -47.0052 33.9186
lfingers 7.12502
lthumb -19.7123 62.9391
rfemur -25.859 -11.9214 12.652
rtibia 73.6179
rfoot 10.8006 6.30644
rtoes -33.4637
lfemur -21.7308 0.676083 -36.7549
ltibia 33.0366
lfoot -25.847 10.731
ltoes 29.468
1777
root 5.35951 15.7795 -3.32168 -716.129 351.887 5.69119
lowerback 1.35724 3.3727 -2.6322
upperback -6.89256 4.32008 -0.920254
thorax -8.10682 2.26174 0.134067
lowerneck 14.0932 -20.4264 -12.9859
upperneck -6.59931 -28.589 13.991
head -0.309096 -14.7105 6.29509
rclavicle -1.59028e-015 7.55382e-015
rhumerus 2.77338 27.4505 -104.784
rradius 110.085
rwrist -32.9638
rhand -15.1377 59.785
rfingers 7.12502
rthumb 11.032 30.0949
lclavicle -1.59028e-015 7.55382e-015
lhumerus -17.6042 2.14811 79.9283
lradius 130.239
lwrist -6.42177
lhand -46.7139 33.4174
lfingers 7.12502
lthumb -19.4322 62.4664
rfemur -27.9923 -10.3373 12.8722
rtibia 74.0734
rfoot 8.60842 5.27414
rtoes -34.1617
lfemur -20.3173 -1.57137 -36.8161
ltibia 32.8398
lfoot -25.7465 8.82988
ltoes 29.4054
1778
root 5.28087 15.7828 -3.10308 -715.83 356.449 5.90891
lowerback 1.57743 3.37988 -3.25433
upperback -7.0573 4.28073 -1.06665
thorax -8.45576 2.28271 0.303372
lowerneck 14.3837 -21.0139 -13.1517
upperneck -6.71885 -29.3818 15.5379
head -0.0169857 -15.1918 6.64975
rclavicle 2.52457e-014 -6.36111e-015
rhumerus 6.59193 25.7352 -102.316
rradius 110.761
rwrist -31.6409
rhand -14.7045 60.853
rfingers 7.12502
rthumb 11.4498 31.1857
lclavicle 2.52457e-014 -6.36111e-015
lhumerus -23.9796 1.17431 81.5135
lradius 128.774
lwrist -7.0693
lhand -45.5002 30.8946
lfingers 7.12502
lthumb -18.265 60.057
rfemur -29.9114 -8.60143 12.7223
rtibia 74.1506
rfoot 6.1551 3.90099
rtoes -39.0256
lfemur -18.9119 -3.70058 -36.8551
ltibia 32.5576
lfoot -25.4287 6.71539
ltoes 29.3661
1779
root 5.19822 15.7805 -2.88055 -715.487 361.058 6.30735
lowerback 1.79337 3.3633 -4.0575
upperback -7.22438 4.19184 -1.2376
thorax -8.81848 2.29353 0.550729
lowerneck 14.6928 -21.4526 -13.5756
upperneck -6.84983 -30.032 17.0763
head 0.298234 -15.5969 7.02601
rclavicle 1.97294e-014 6.75868e-015
rhumerus 10.7779 23.706 -99.7195
rradius 111.34
rwrist -30.2792
rhand -14.432 61.8428
rfingers 7.12502
rthumb 11.7126 32.1903
lclavicle 1.97294e-014 6.75868e-015
lhumerus -30.5405 0.427787 83.2954
lradius 126.417
lwrist -8.98204
lhand -43.1208 27.5495
lfingers 7.12502
lthumb -15.9747 56.9108
rfemur -31.6244 -6.79125 12.1909
rtibia 73.8836
rfoot 3.41991 3.13929
rtoes -35.3389
lfemur -17.5132 -5.36813 -37.0281
ltibia 32.1794
lfoot -24.7678 4.21949
ltoes 28.2909
1780
root 5.11783 15.7786 -2.65357 -715.018 365.74 6.8071
lowerback 1.82079 3.33241 -4.79685
upperback -7.2566 4.09216 -1.47774
thorax -8.91053 2.29075 0.710277
lowerneck 14.6939 -21.8006 -13.9096
upperneck -7.00603 -30.5241 18.4059
head 0.593547 -15.9015 7.31668
rclavicle 1.75924e-014 -2.46493e-014
rhumerus 15.6154 21.3094 -97.1715
rradius 111.621
rwrist -28.7685
rhand -14.4787 62.8881
rfingers 7.12502
rthumb 11.6675 33.233
lclavicle 1.75924e-014 -2.46493e-014
lhumerus -36.616 -0.469559 85.1864
lradius 123.421
lwrist -10.7348
lhand -40.9738 25.88
lfingers 7.12502
lthumb -13.9063 55.3951
rfemur -33.1926 -4.77708 11.2704
rtibia 73.3209
rfoot 0.675228 2.45777
rtoes -36.1277
lfemur -16.2533 -6.31923 -37.2324
ltibia 31.8145
lfoot -24.1222 1.11825
ltoes 26.8135
1781
root 5.0396 15.7854 -2.41895 -714.47 370.608 7.1497
lowerback 1.79399 3.2835 -5.28756
upperback -7.255 3.99176 -1.67925
thorax -8.91403 2.27132 0.779046
lowerneck 14.4926 -22.0974 -14.1031
upperneck -7.19877 -30.9058 19.435
head 0.828143 -16.1283 7.50977
rclavicle -5.50634e-014 -1.11319e-014
rhumerus 20.8554 18.4385 -94.5833
rradius 111.998
rwrist -26.8866
rhand -14.7042 62.8985
rfingers 7.12502
rthumb 11.45 33.2311
lclavicle -5.50634e-014 -1.11319e-014
lhumerus -42.3112 -1.2673 87.3464
lradius 119.917
lwrist -10.848
lhand -39.2184 25.4413
lfingers 7.12502
lthumb -12.2142 55.0647
rfemur -34.4491 -2.69107 10.2639
rtibia 72.471
rfoot -1.83442 1.56192
rtoes -36.8905
lfemur -15.0236 -6.74448 -37.0375
ltibia 31.3104
lfoot -23.4009 -2.83575
ltoes 26.9328
1782
root 4.95988 15.8091 -2.16858 -713.93 375.665 7.47095
lowerback 1.83687 3.19801 -5.80982
upperback -7.28702 3.83868 -1.8293
thorax -8.99851 2.23238 0.918336
lowerneck 14.3578 -22.2655 -14.2689
upperneck -7.49407 -31.1044 20.2956
head 0.965416 -16.2589 7.69838
rclavicle 2.14936e-014 -7.35503e-015
rhumerus 25.9375 15.654 -91.6275
rradius 112.149
rwrist -25.7837
rhand -15.2343 63.7432
rfingers 7.12502
rthumb 10.9387 34.0482
lclavicle 2.14936e-014 -7.35503e-015
lhumerus -47.4334 -1.5718 89.4503
lradius 115.877
lwrist -9.85903
lhand -37.0169 24.6161
lfingers 7.12502
lthumb -10.0909 54.3541
rfemur -35.1873 -0.673124 9.1129
rtibia 71.6287
rfoot -4.07744 1.98578
rtoes -36.4194
lfemur -13.6815 -7.15708 -36.5282
ltibia 30.7038
lfoot -22.4818 -7.1278
ltoes 27.7481
1783
root 4.90075 15.8529 -1.92054 -713.565 381.456 7.77814
lowerback 2.30579 2.89028 -5.89193
upperback -7.32736 3.38331 -1.95496
thorax -9.28766 2.01843 0.849733
lowerneck 14.537 -22.0385 -14.6205
upperneck -7.95654 -30.8058 21.1413
head 0.951932 -16.1563 8.02104
rclavicle -2.48481e-014 1.50082e-014
rhumerus 30.8063 12.7916 -88.8093
rradius 112.272
rwrist -24.7159
rhand -15.7568 63.7462
rfingers 7.12502
rthumb 10.4348 34.0251
lclavicle -2.48481e-014 1.50082e-014
lhumerus -52.0514 -1.13973 91.4538
lradius 111.416
lwrist -7.98027
lhand -33.8988 24.7
lfingers 7.12502
lthumb -7.08188 54.5615
rfemur -35.1868 0.593637 7.95207
rtibia 71.0776
rfoot -0.413649 6.98927
rtoes -10.763
lfemur -12.0801 -8.54975 -35.8516
ltibia 30.0594
lfoot -21.4761 -10.856
ltoes 26.9112
1784
root 4.83239 15.9047 -1.66188 -712.75 386.512 7.89619
lowerback 2.16035 2.83811 -6.08569
upperback -7.48695 3.31796 -1.95621
thorax -9.38868 2.01094 0.961793
lowerneck 14.8615 -21.3992 -15.2771
upperneck -8.49747 -30.0012 22.2274
head 0.889592 -15.8196 8.52934
rclavicle -4.96092e-014 6.26172e-015
rhumerus 35.8538 9.95259 -86.1166
rradius 111.9
rwrist -23.6174
rhand -16.1792 64.379
rfingers 7.12502
rthumb 10.0273 34.6378
lclavicle -4.96092e-014 6.26172e-015
lhumerus -55.8129 -0.287676 92.9814
lradius 106.968
lwrist -6.398
lhand -28.9476 28.1911
lfingers 7.12502
lthumb -2.30114 58.1585
rfemur -35.9673 2.38736 7.05161
rtibia 70.8697
rfoot -0.267427 9.84888
rtoes -13.2536
lfemur -11.2525 -9.88461 -34.7645
ltibia 29.4875
lfoot -20.7158 -13.9959
ltoes 25.455
1785
root 4.76938 15.9403 -1.39655 -711.581 391.762 8.40939
lowerback 1.9192 2.77772 -6.44432
upperback -7.70861 3.23124 -2.07341
thorax -9.5059 2.00387 1.04557
lowerneck 13.8224 -21.5081 -13.9813
upperneck -8.91465 -29.7516 21.1639
head 0.510257 -15.6203 8.10045
rclavicle 5.84613e-014 1.02871e-014
rhumerus 40.8806 7.27428 -83.2939
rradius 111.338
rwrist -22.4375
rhand -16.5868 64.9711
rfingers 7.12502
rthumb 9.63399 35.2114
lclavicle 5.84613e-014 1.02871e-014
lhumerus -58.8351 0.86883 94.0104
lradius 102.47
lwrist -5.47762
lhand -24.3925 32.187
lfingers 7.12502
lthumb 2.09829 62.1564
rfemur -36.7118 3.32582 5.92462
rtibia 70.9035
rfoot -1.97026 11.6941
rtoes -21.6058
lfemur -10.7945 -11.7569 -33.8691
ltibia 29.1756
lfoot -19.9583 -16.9537
ltoes 24.447
